<svg id="Layer_1" data-name="Layer 1" xmlns="http://www.w3.org/2000/svg" viewBox="0 0 295 70">
  <defs>
    <style>
      .cls-1 {
        fill: #333;
      }

      .cls-2 {
        fill: #fff;
      }
    </style>
  </defs>
  <title>facebook-button</title>
  <rect class="cls-1" width="295" height="70" rx="35" ry="35"/>
  <g>
    <path class="cls-2" d="M86.192,33.256l4.28-.179c.078-.6.176-1.065.191-1.529.032-1.038-.022-2.08.037-3.115.21-3.672,2.1-5.635,5.752-6.186a12.571,12.571,0,0,1,5.329.227v4.05c-.738.061-1.5.133-2.255.185-2.133.145-2.84.79-2.992,2.9-.077,1.076-.014,2.162-.014,3.535h5.214l-.43,4.759H96.537v15.41H90.681V38.025H86.192Z"/>
    <path class="cls-2" d="M234.291,22.7l5.8-.479V42.8c1.363-.823,1.682-2.116,2.389-3.09s1.311-2.058,1.963-3.09c.682-1.081,1.369-2.158,2.1-3.312h6.191l-6.21,9.876L253,53.3h-6.219l-6.168-9.63-.332.066v9.521h-5.991Z"/>
    <path class="cls-2" d="M141.923,34.057l-1.2,3.717a37.655,37.655,0,0,0-4.43-.541,4.38,4.38,0,0,0-4.7,4.52,28.328,28.328,0,0,0,0,3.111,4.441,4.441,0,0,0,4.692,4.565,33.964,33.964,0,0,0,4.391-.544l1.3,3.731a12.879,12.879,0,0,1-1.651.742,15.378,15.378,0,0,1-7.952.151,8.155,8.155,0,0,1-6.538-7.033,16.042,16.042,0,0,1,.423-7.95,7.275,7.275,0,0,1,3.936-4.593,14.115,14.115,0,0,1,11.027-.334A4.237,4.237,0,0,1,141.923,34.057Z"/>
    <path class="cls-2" d="M184.646,37.088a7.519,7.519,0,0,0-12.6-1.789c-.134.149-.389.188-.871.408V22.184l-5.6.556V53.319h5.192l.28-2.592a6.559,6.559,0,0,1,.762.586A7.679,7.679,0,0,0,184.6,49.569a14.592,14.592,0,0,0,1.094-4.407A14.5,14.5,0,0,0,184.646,37.088Zm-5.229,9.622a3.919,3.919,0,0,1-4.1,2.721,3.644,3.644,0,0,1-3.661-3.009,21.651,21.651,0,0,1-.057-5.964,3.648,3.648,0,0,1,3.841-3.229,3.947,3.947,0,0,1,4.1,2.985,3.3,3.3,0,0,1,.225.882c.031.791.011,1.585.011,2.378l.206.024A21.389,21.389,0,0,1,179.417,46.711Z"/>
    <path class="cls-2" d="M119.9,33.193c-.89.022-1.779.086-2.67.131L117,35.679a18.73,18.73,0,0,0-3.225-2.4,7.689,7.689,0,0,0-10.244,4.346,18.012,18.012,0,0,0-.519,9.58c.527,3.085,2.172,5.511,5.343,6.373,3.228.877,6.185.391,8.339-2.522.02-.027.117,0,.294.014l.283,2.253h5.43V33.188C121.707,33.188,120.8,33.17,119.9,33.193Zm-3.462,13.735a3.685,3.685,0,0,1-3.666,2.507,3.792,3.792,0,0,1-3.773-2.637,28.18,28.18,0,0,1-.632-3.4,32.4,32.4,0,0,1,.585-3.432,3.749,3.749,0,0,1,3.685-2.739,3.635,3.635,0,0,1,3.815,2.527A11.085,11.085,0,0,1,116.434,46.928Z"/>
    <path class="cls-2" d="M231.369,43.348c0-.733.058-1.471-.01-2.2A8.723,8.723,0,0,0,224.71,33.1a13.139,13.139,0,0,0-6.71-.037,8.332,8.332,0,0,0-6.56,6.867,20.746,20.746,0,0,0-.323,4.733c.208,4.611,2.585,7.717,6.65,8.827a12.2,12.2,0,0,0,2.887.444c5.271.128,9.514-1.9,10.593-7.663a26.3,26.3,0,0,0,.229-2.918Zm-6,2.621a4.042,4.042,0,0,1-4.1,3.467,3.916,3.916,0,0,1-4.058-3.493,20.19,20.19,0,0,1,0-5.282,4.127,4.127,0,0,1,8.112-.133,25.426,25.426,0,0,1,.357,2.869A25.572,25.572,0,0,1,225.366,45.969Z"/>
    <path class="cls-2" d="M207.984,38.794c-1.257-3.921-4.269-5.663-8.149-6.043-5.326-.521-10.362,1.593-11.392,7.752-.15.9-.151,1.822-.221,2.734l.092,0c0,.672-.044,1.347.007,2.016a8.694,8.694,0,0,0,6.474,8.19,12.941,12.941,0,0,0,7.751-.133,8.029,8.029,0,0,0,5.455-5.5A14.942,14.942,0,0,0,207.984,38.794Zm-5.527,7.365a3.9,3.9,0,0,1-4.23,3.272,4.045,4.045,0,0,1-3.88-3.5c-.167-.9-.207-1.814-.306-2.725.1-.857.141-1.715.312-2.547a4.008,4.008,0,0,1,4.11-3.433,3.839,3.839,0,0,1,4.005,3.307A20.755,20.755,0,0,1,202.457,46.159Z"/>
    <path class="cls-2" d="M162.326,45.286c.091-2.527.235-4.825-.5-7.078a7.258,7.258,0,0,0-4.948-4.985,12.507,12.507,0,0,0-8.437.319,7.412,7.412,0,0,0-4.925,6.117,27.068,27.068,0,0,0-.292,5.467c.263,4.658,2.382,7.356,6.554,8.381a20.337,20.337,0,0,0,11.36-.681c.208-.068.365-.293.622-.508l-.973-3.6c-.809.211-1.5.42-2.208.572a13.452,13.452,0,0,1-6.707.212c-1.95-.567-2.805-2.035-2.372-4.219Zm-13.01-3.671c-.286-2.038.189-3.493,1.694-4.393a4.082,4.082,0,0,1,4.5.031c1.431.927,1.758,2.374,1.473,4.205A49.076,49.076,0,0,1,149.316,41.614Z"/>
  </g>
  <rect id="Blue" class="cls-2" x="42.999" y="16.06" width="37.478" height="37.478" rx="2.068" ry="2.068"/>
  <path id="f" class="cls-1" d="M55.667,57.447V40.235h5.778l.865-6.708H55.667V29.244c0-1.942.539-3.266,3.324-3.266l3.552,0v-6a47.533,47.533,0,0,0-5.176-.264c-5.121,0-8.628,3.126-8.628,8.867v4.947H42.948v6.708H48.74V57.447Z"/>
</svg>
