<svg id="Layer_1" data-name="Layer 1" xmlns="http://www.w3.org/2000/svg" viewBox="0 0 295 70">
  <defs>
    <style>
      .cls-1 {
        fill: #333;
      }

      .cls-2 {
        fill: #ff9700;
      }
    </style>
  </defs>
  <title>soundcloud-button</title>
  <rect class="cls-1" width="295" height="70" rx="35" ry="35"/>
  <g>
    <path class="cls-2" d="M42.762,46.591a.6.6,0,0,0,.6-.6v0l.355-5.625L43.359,28.32a.6.6,0,0,0-1.2,0l-.315,12.056L42.165,46A.6.6,0,0,0,42.762,46.591Z"/>
    <path class="cls-2" d="M45.057,46.6a.645.645,0,0,0,.644-.641v0l.323-5.589L45.7,28.76a.644.644,0,0,0-1.288,0l-.288,11.615.288,5.589A.644.644,0,0,0,45.057,46.6Z"/>
    <path class="cls-2" d="M40.469,46.6a.555.555,0,0,0,.551-.547h0l.386-5.676L41.019,28a.551.551,0,0,0-1.1,0l-.343,12.371.343,5.679A.553.553,0,0,0,40.469,46.6Z"/>
    <path class="cls-2" d="M38.427,46.586a.511.511,0,0,0,.5-.5l.418-5.712-.417-11.968a.5.5,0,0,0-1.009,0l-.37,11.967.37,5.714A.508.508,0,0,0,38.427,46.586Z"/>
    <path class="cls-2" d="M51.689,46.617c.017,0,18.43.011,18.55.011a6.693,6.693,0,1,0-2.588-12.866A11.809,11.809,0,0,0,55.891,23a11.963,11.963,0,0,0-4.281.8c-.5.2-.64.4-.644.787v21.24A.81.81,0,0,0,51.689,46.617Z"/>
    <path class="cls-2" d="M49.645,46.579a.744.744,0,0,0,.737-.735v.006l.328-5.472L50.381,25.3a.737.737,0,0,0-1.474,0l-.3,15.075.3,5.471A.742.742,0,0,0,49.645,46.579Z"/>
    <path class="cls-2" d="M47.35,46.613a.7.7,0,0,0,.69-.687l.291-5.548-.291-13.823a.69.69,0,0,0-1.381,0L46.4,40.373c0,.009.26,5.556.26,5.556A.7.7,0,0,0,47.35,46.613Z"/>
    <path class="cls-2" d="M23.546,43.338l.472-2.971-.472-3.023a.228.228,0,0,0-.217-.212.225.225,0,0,0-.218.213l-.4,3.022.4,2.97a.224.224,0,0,0,.218.212A.227.227,0,0,0,23.546,43.338Z"/>
    <path class="cls-2" d="M27.478,46.22a.281.281,0,0,0,.273-.266l.577-5.587-.576-5.8a.282.282,0,0,0-.273-.267.279.279,0,0,0-.273.267l-.508,5.8.508,5.585A.279.279,0,0,0,27.478,46.22Z"/>
    <path class="cls-2" d="M25.34,45.365a.237.237,0,0,0,.226-.219l.609-4.779-.608-4.886a.227.227,0,0,0-.453,0l-.535,4.886.535,4.778A.236.236,0,0,0,25.34,45.365Z"/>
    <path class="cls-2" d="M36.2,46.6a.467.467,0,0,0,.458-.454l.449-5.771-.449-11.046a.458.458,0,0,0-.917,0l-.4,11.046.4,5.773A.464.464,0,0,0,36.2,46.6Z"/>
    <path class="cls-2" d="M29.633,46.444a.328.328,0,0,0,.319-.313l.545-5.763-.545-5.958a.319.319,0,0,0-.638,0l-.48,5.956.48,5.763A.326.326,0,0,0,29.633,46.444Z"/>
    <path class="cls-2" d="M34.171,46.586a.423.423,0,0,0,.412-.407v0l.482-5.81-.482-8.99a.412.412,0,0,0-.823,0l-.426,8.99.426,5.81A.419.419,0,0,0,34.171,46.586Z"/>
    <path class="cls-2" d="M31.805,46.538a.373.373,0,0,0,.365-.359l.514-5.811-.514-5.528a.365.365,0,0,0-.731,0l-.452,5.525.452,5.81A.371.371,0,0,0,31.805,46.538Z"/>
  </g>
  <g>
    <path class="cls-2" d="M221.612,44.225c-.315-.084-.627-.176-.944-.249a7.667,7.667,0,0,1-5.35-4.361,12.162,12.162,0,0,1-1.119-5.329,12.633,12.633,0,0,1,1.111-5.58,7.842,7.842,0,0,1,8.4-4.509,7.563,7.563,0,0,1,6.625,5.409,13.243,13.243,0,0,1-.014,9.132,7.541,7.541,0,0,1-6.328,5.327,1.593,1.593,0,0,0-.376.16ZM227.149,34.2a8.285,8.285,0,0,0-.76-3.99,3.912,3.912,0,0,0-3.736-2.332,3.768,3.768,0,0,0-3.725,2.321,10.608,10.608,0,0,0-.756,2.873,8.777,8.777,0,0,0,.778,5.111,3.77,3.77,0,0,0,2.485,2.06,4.124,4.124,0,0,0,5.134-2.563A8.352,8.352,0,0,0,227.149,34.2Z"/>
    <path class="cls-2" d="M106.927,44.225c-.314-.084-.626-.176-.943-.25a7.467,7.467,0,0,1-5.5-4.75,13.23,13.23,0,0,1,.133-10.439,7.754,7.754,0,0,1,8.414-4.588,7.563,7.563,0,0,1,6.592,5.336,13.253,13.253,0,0,1,.042,9.132,7.556,7.556,0,0,1-6.361,5.4,1.6,1.6,0,0,0-.376.159ZM112.466,34.1a8.222,8.222,0,0,0-.617-3.59,3.961,3.961,0,0,0-3.865-2.63,3.879,3.879,0,0,0-3.883,2.595,9.794,9.794,0,0,0-.021,7.3,3.858,3.858,0,0,0,2.473,2.414,4.153,4.153,0,0,0,5.28-2.373A8.412,8.412,0,0,0,112.466,34.1Z"/>
    <path class="cls-2" d="M87.591,44.225c-.477-.12-.954-.243-1.431-.361a8.506,8.506,0,0,1-4.514-2.658c-.316-.362-.372-.593.054-.926a24,24,0,0,0,1.871-1.655c.33-.318.514-.3.85.027a6.694,6.694,0,0,0,6.494,1.577A1.858,1.858,0,0,0,92.465,38.1a1.613,1.613,0,0,0-1.126-1.506c-.9-.35-1.837-.61-2.763-.893-1.085-.332-2.2-.589-3.258-.981A4.724,4.724,0,0,1,82,30.1a5.167,5.167,0,0,1,2.7-4.909A9.416,9.416,0,0,1,95.634,26.78c.243.254.291.418.019.674-.688.646-1.368,1.3-2.028,1.977-.275.281-.467.286-.756.015a5.024,5.024,0,0,0-2.827-1.49,9.527,9.527,0,0,0-2.713.082,1.612,1.612,0,0,0-.176,3.158c1.211.389,2.457.671,3.666,1.066a19.149,19.149,0,0,1,3.088,1.193,4.534,4.534,0,0,1,2.487,4.223,8.828,8.828,0,0,1-.211,2.225,5.064,5.064,0,0,1-3.377,3.618,20.8,20.8,0,0,1-2.09.523c-.21.052-.416.12-.624.18Z"/>
    <path class="cls-2" d="M127.264,44.225c-.344-.086-.689-.173-1.033-.257a7.157,7.157,0,0,1-5.581-6.036,14.045,14.045,0,0,1-.233-2.73c-.025-3.306-.008-6.612,0-9.917,0-.859.008-.86.871-.864.722,0,1.445,0,2.167,0,.749.005.754.009.755.793,0,3.111-.013,6.223.014,9.334a12.775,12.775,0,0,0,.226,2.726,3.776,3.776,0,0,0,2.672,3.024,3.725,3.725,0,0,0,4.591-2.033,6.975,6.975,0,0,0,.568-2.569c.066-3.471.032-6.944.037-10.417,0-.854,0-.856.853-.858.75,0,1.5-.007,2.25,0,.668.008.681.015.684.709q.012,3.25,0,6.5c0,1.639.039,3.281-.051,4.916a8.322,8.322,0,0,1-2.219,5.516,6.9,6.9,0,0,1-3.863,1.969c-.24.044-.473.127-.709.191Z"/>
    <path class="cls-2" d="M241.949,44.225c-.345-.085-.689-.172-1.034-.256a7.148,7.148,0,0,1-5.581-6.034,14.6,14.6,0,0,1-.237-2.813c-.025-3.278-.008-6.556,0-9.834,0-.862.008-.863.869-.867q1.042,0,2.083,0c.836,0,.839,0,.84.879,0,3.25-.011,6.5.015,9.751a9.2,9.2,0,0,0,.241,2.307,3.815,3.815,0,0,0,5.115,2.878,3.265,3.265,0,0,0,2.2-2.122,8.553,8.553,0,0,0,.507-2.586c.058-3.416.025-6.833.028-10.25,0-.853,0-.854.852-.857.75,0,1.5-.007,2.25,0,.671.008.685.015.686.7q.011,4.459.006,8.917c0,.805.005,1.612-.036,2.416a9.555,9.555,0,0,1-.953,3.764,6.756,6.756,0,0,1-5.141,3.809c-.24.044-.473.127-.709.192Z"/>
    <path class="cls-2" d="M188.94,44.225c-.372-.094-.742-.19-1.115-.281a7.619,7.619,0,0,1-5.7-5.305,12.162,12.162,0,0,1,.907-10.659c1.859-3.017,4.705-4.147,8.19-3.772a7.029,7.029,0,0,1,5.487,3.463c.418.676.413.683-.276,1-.781.359-1.571.7-2.344,1.073-.343.166-.57.221-.814-.18-1.376-2.257-5.272-2.351-6.9.274a8.254,8.254,0,0,0-1.063,5.2,7.9,7.9,0,0,0,.819,2.945,4.2,4.2,0,0,0,7.308.539c.382-.593.411-.576,1-.229.669.394,1.341.785,2,1.188.6.362.6.379.264.962a7.174,7.174,0,0,1-5.062,3.583c-.24.046-.473.13-.71.2Z"/>
    <path class="cls-2" d="M156.9,34.089q0,4.5,0,9c0,.771-.006.774-.762.779-.694,0-1.39-.027-2.082.011a.957.957,0,0,1-.941-.517q-3.846-5.791-7.72-11.564a3.884,3.884,0,0,0-.232-.345.656.656,0,0,0-.195-.112.645.645,0,0,0-.1.208c-.013.221-.006.444-.006.666q.016,5.415.032,10.831c0,.817,0,.819-.8.822-.778,0-1.557-.032-2.332.012-.536.03-.7-.183-.634-.673a1.836,1.836,0,0,0,0-.25q0-8.831.006-17.663c0-.866,0-.868.84-.87.75,0,1.5.019,2.249-.008a.912.912,0,0,1,.886.463q3.708,5.583,7.444,11.148a6.868,6.868,0,0,0,.505.6,6.655,6.655,0,0,0,.092-.794q0-5.29-.015-10.581c0-.821,0-.823.8-.827q1,0,2,0c1.069.007.953-.092.955.919q.008,4.374,0,8.748Z"/>
    <path class="cls-2" d="M162.047,34.134c0-2.941,0-5.883,0-8.824,0-.882.018-.888.855-.888,1.915,0,3.83-.021,5.744.015a11.682,11.682,0,0,1,3.828.684,7.357,7.357,0,0,1,4.684,4.839,12.835,12.835,0,0,1,.333,6.815,8.737,8.737,0,0,1-7.6,6.919,18.684,18.684,0,0,1-2.318.166c-1.637.025-3.275-.012-4.912.019-.523.01-.686-.17-.656-.669.033-.553.008-1.11.008-1.665q0-3.7,0-7.409Zm3.779-.017h.032c0,1.8.014,3.6-.009,5.407-.006.509.174.706.675.677.884-.051,1.777-.025,2.654-.128a4.83,4.83,0,0,0,4.445-4.066,11.477,11.477,0,0,0,.1-3.546,4.508,4.508,0,0,0-4.277-4.25c-.934-.1-1.88-.115-2.821-.132-.764-.013-.792.03-.794.8C165.822,30.624,165.826,32.37,165.826,34.117Z"/>
    <path class="cls-2" d="M255.821,34.123q0-4.457,0-8.915c0-.778.006-.786.756-.787,1.972,0,3.945-.045,5.915.02a9.867,9.867,0,0,1,6,1.909,8.162,8.162,0,0,1,2.894,5.363,12.161,12.161,0,0,1-.357,6.008,8.585,8.585,0,0,1-7.349,5.946,38.68,38.68,0,0,1-4.816.194c-.8.021-1.612-.028-2.415.015-.536.029-.646-.182-.642-.673.021-2.8.011-5.61.012-8.415q0-.333,0-.666Zm3.781,0h0c0,1.776-.005,3.552,0,5.328,0,.695.033.743.686.736a23.853,23.853,0,0,0,2.739-.124,4.967,4.967,0,0,0,4.371-3.886,8.96,8.96,0,0,0-.016-4.364,4.26,4.26,0,0,0-3.6-3.47,25.547,25.547,0,0,0-3.39-.261c-.769-.03-.8.026-.8.8C259.6,30.627,259.6,32.375,259.6,34.124Z"/>
    <path class="cls-2" d="M200.633,34.1q0-4.375,0-8.75c0-1.042-.058-.918.959-.924.778-.005,1.556.011,2.333,0,.355-.007.5.121.488.483-.019.416,0,.833,0,1.25q0,6.542.006,13.083c0,.864.006.868.86.87,2.111,0,4.222.017,6.333-.01.517-.007.683.153.659.661-.035.776,0,1.555-.009,2.333s-.008.777-.77.778q-4.5,0-9,0c-.444,0-.89-.018-1.333,0-.392.02-.549-.125-.535-.525.022-.638.005-1.278.005-1.916q0-3.667,0-7.333Z"/>
  </g>
</svg>
