<svg id="Layer_1" data-name="Layer 1" xmlns="http://www.w3.org/2000/svg" viewBox="0 0 295 70">
  <defs>
    <style>
      .cls-1 {
        fill: #333;
      }

      .cls-2 {
        fill: #1ed760;
      }
    </style>
  </defs>
  <title>spotify-button</title>
  <rect class="cls-1" width="295" height="70" rx="35" ry="35"/>
  <g>
    <path class="cls-2" d="M105.175,32.508c-7.82-4.644-20.72-5.071-28.185-2.805a2.269,2.269,0,1,1-1.317-4.343c8.57-2.6,22.816-2.1,31.819,3.245a2.269,2.269,0,0,1-2.316,3.9Zm-.256,6.879a1.892,1.892,0,0,1-2.6.623C95.8,36,85.855,34.841,78.142,37.182a1.891,1.891,0,1,1-1.1-3.619c8.811-2.674,19.765-1.379,27.254,3.223a1.892,1.892,0,0,1,.622,2.6Zm-2.969,6.606a1.511,1.511,0,0,1-2.079.5c-5.7-3.482-12.868-4.268-21.313-2.339a1.512,1.512,0,1,1-.673-2.947c9.241-2.113,17.169-1.2,23.564,2.7a1.512,1.512,0,0,1,.5,2.08ZM90.824,11a24.261,24.261,0,1,0,24.261,24.26A24.261,24.261,0,0,0,90.824,11Z"/>
    <path class="cls-2" d="M132.568,33.4c-4.189-1-4.935-1.7-4.935-3.173,0-1.392,1.311-2.328,3.259-2.328a9.523,9.523,0,0,1,5.725,2.175.274.274,0,0,0,.207.05.271.271,0,0,0,.181-.112l2.045-2.883a.275.275,0,0,0-.052-.373,12.374,12.374,0,0,0-8.045-2.787c-4.523,0-7.682,2.714-7.682,6.6,0,4.165,2.725,5.639,7.435,6.777,4.008.923,4.685,1.7,4.685,3.08,0,1.532-1.368,2.485-3.569,2.485a9.621,9.621,0,0,1-6.67-2.756.289.289,0,0,0-.2-.065.272.272,0,0,0-.188.1l-2.293,2.729a.272.272,0,0,0,.027.38,13.673,13.673,0,0,0,9.233,3.542c4.874,0,8.023-2.663,8.023-6.785,0-3.483-2.081-5.41-7.185-6.651Z"/>
    <path class="cls-2" d="M154.317,38.065c0,2.941-1.812,4.994-4.406,4.994-2.565,0-4.5-2.146-4.5-4.994s1.935-4.994,4.5-4.994,4.406,2.1,4.406,4.994Zm-3.6-8.586A6.688,6.688,0,0,0,145.387,32V30.1a.276.276,0,0,0-.275-.275h-3.8a.274.274,0,0,0-.274.274V51.273a.276.276,0,0,0,.275.275h3.8a.274.274,0,0,0,.274-.274V44.589a6.862,6.862,0,0,0,5.331,2.371c3.968,0,7.984-3,7.984-8.739s-4.017-8.741-7.984-8.741Z"/>
    <path class="cls-2" d="M168.864,43.09a4.77,4.77,0,0,1-4.716-5.025A4.658,4.658,0,0,1,168.8,33.1a4.785,4.785,0,0,1,4.747,5.027,4.67,4.67,0,0,1-4.685,4.962Zm0-13.824a8.817,8.817,0,1,0,8.983,8.8,8.845,8.845,0,0,0-8.983-8.8Z"/>
    <path class="cls-2" d="M188.573,29.821H184.5V25.46a.275.275,0,0,0-.275-.275h-3.8a.276.276,0,0,0-.275.275v4.07H178.4a.273.273,0,0,0-.273.273v3.218a.276.276,0,0,0,.275.275h1.753v8.341c0,3.371,1.688,5.08,5.017,5.08a6.916,6.916,0,0,0,3.537-.876.273.273,0,0,0,.137-.237V42.622a.276.276,0,0,0-.4-.247,4.733,4.733,0,0,1-2.2.532c-1.2,0-1.743-.547-1.743-1.773V33.3h4.072a.273.273,0,0,0,.273-.273v-2.95a.262.262,0,0,0-.27-.253Z"/>
    <path class="cls-2" d="M203.038,29.531v-.52c0-1.529.581-2.21,1.885-2.21a6.249,6.249,0,0,1,2.1.391.271.271,0,0,0,.246-.038.274.274,0,0,0,.113-.224V23.848a.275.275,0,0,0-.2-.264,10.4,10.4,0,0,0-3.148-.452c-3.5,0-5.347,1.97-5.347,5.695v.7H196.94a.276.276,0,0,0-.275.275v3.216a.276.276,0,0,0,.275.275h1.753V46.059a.275.275,0,0,0,.275.275h3.8a.276.276,0,0,0,.275-.275V33.3h3.544l5.335,12.894c-.606,1.355-1.2,1.624-2.014,1.624a4.276,4.276,0,0,1-2.057-.588.269.269,0,0,0-.379.128l-1.264,2.8a.274.274,0,0,0,.117.356,7.805,7.805,0,0,0,3.983,1.028c2.754,0,4.276-1.294,5.619-4.773l6.471-16.856a.278.278,0,0,0-.029-.256.272.272,0,0,0-.224-.12h-3.883a.274.274,0,0,0-.258.185l-3.978,11.454-4.357-11.461a.272.272,0,0,0-.255-.177Z"/>
    <path class="cls-2" d="M194.649,29.531h-3.793a.275.275,0,0,0-.275.275V46.059a.275.275,0,0,0,.275.275h3.8a.275.275,0,0,0,.275-.275V29.8a.276.276,0,0,0-.278-.273Z"/>
    <path class="cls-2" d="M192.829,22.158a2.69,2.69,0,1,0,2.69,2.689,2.69,2.69,0,0,0-2.69-2.689Z"/>
    <path class="cls-2" d="M225.737,31.269h-.681v.869h.681c.34,0,.543-.166.543-.435s-.2-.434-.543-.434Zm.564,1.225.821,1.093h-.933l-.609-.869h-.524v.869h-.579v-2.9h1.358c.707,0,1.173.344,1.173.924a.873.873,0,0,1-.707.88Zm-.6-2.654a2.383,2.383,0,1,0,2.362,2.376,2.36,2.36,0,0,0-2.362-2.376Zm-.014,5.031a2.647,2.647,0,1,1,2.653-2.655,2.629,2.629,0,0,1-2.653,2.655Z"/>
  </g>
</svg>
